<?xml version="1.0" standalone="no"?>
<!DOCTYPE svg PUBLIC "-//W3C//DTD SVG 20010904//EN"
 "http://www.w3.org/TR/2001/REC-SVG-20010904/DTD/svg10.dtd">
<svg version="1.0" xmlns="http://www.w3.org/2000/svg"
 width="310.000000pt" height="310.000000pt" viewBox="0 0 310.000000 310.000000"
 preserveAspectRatio="xMidYMid meet">
<metadata>
Created by potrace 1.14, written by Peter Selinger 2001-2017
</metadata>
<g transform="translate(0.000000,310.000000) scale(0.100000,-0.100000)"
fill="#000000" stroke="none">
<path d="M352 2780 c-18 -17 -29 -30 -24 -30 5 0 21 14 37 30 37 38 30 38 -13
0z"/>
<path d="M381 2756 c-13 -14 -21 -31 -18 -38 4 -10 6 -10 6 1 1 8 11 25 23 38
12 13 19 23 16 23 -2 0 -15 -11 -27 -24z"/>
<path d="M2684 2748 l-29 -33 35 30 c19 17 37 31 39 33 2 1 0 2 -5 2 -6 0 -23
-15 -40 -32z"/>
<path d="M251 2724 c0 -11 3 -14 6 -6 3 7 2 16 -1 19 -3 4 -6 -2 -5 -13z"/>
<path d="M2709 2713 c-12 -16 -12 -17 2 -6 9 7 20 9 24 5 5 -4 5 -1 1 6 -9 16
-11 15 -27 -5z"/>
<path d="M295 2630 c-10 -11 -15 -20 -12 -20 4 0 16 9 27 20 11 11 16 20 12
20 -5 0 -17 -9 -27 -20z"/>
<path d="M510 2636 c0 -2 7 -7 16 -10 8 -3 12 -2 9 4 -6 10 -25 14 -25 6z"/>
<path d="M2548 2623 c7 -3 16 -2 19 1 4 3 -2 6 -13 5 -11 0 -14 -3 -6 -6z"/>
<path d="M639 2603 c-13 -16 -12 -17 4 -4 9 7 17 15 17 17 0 8 -8 3 -21 -13z"/>
<path d="M541 2594 c0 -11 3 -14 6 -6 3 7 2 16 -1 19 -3 4 -6 -2 -5 -13z"/>
<path d="M2430 2595 c-7 -9 -11 -17 -9 -20 3 -2 10 5 17 15 14 24 10 26 -8 5z"/>
<path d="M506 2573 c-6 -14 -5 -15 5 -6 7 7 10 15 7 18 -3 3 -9 -2 -12 -12z"/>
<path d="M2518 2573 c7 -3 16 -2 19 1 4 3 -2 6 -13 5 -11 0 -14 -3 -6 -6z"/>
<path d="M570 2560 c-13 -8 -12 -10 3 -10 9 0 17 5 17 10 0 12 -1 12 -20 0z"/>
<path d="M491 2534 c0 -11 3 -14 6 -6 3 7 2 16 -1 19 -3 4 -6 -2 -5 -13z"/>
<path d="M1367 2525 c-67 -13 -320 -110 -352 -135 -5 -5 -44 -18 -85 -31 -304
-91 -510 -287 -570 -542 l-16 -69 -51 -2 c-57 -2 -80 -16 -100 -63 -16 -39
-17 -165 -2 -213 6 -19 12 -100 13 -180 1 -80 5 -157 10 -172 7 -24 5 -27 -26
-33 -78 -17 -101 -76 -68 -174 27 -80 55 -124 118 -185 93 -90 200 -146 280
-146 21 0 50 -9 67 -21 55 -37 209 -111 303 -145 91 -33 96 -34 240 -33 81 1
134 4 117 6 -152 22 -330 76 -480 148 -209 100 -322 203 -398 363 -60 128 -88
219 -94 305 l-6 79 53 -56 c29 -30 71 -64 94 -76 29 -13 56 -40 86 -82 93
-132 358 -378 407 -378 11 0 27 6 37 13 17 12 12 18 -55 67 -92 66 -271 244
-334 330 -57 78 -107 175 -129 249 -9 30 -15 56 -13 57 1 1 14 -8 28 -20 15
-13 31 -42 38 -71 28 -112 115 -275 146 -275 7 0 21 7 30 16 15 15 14 19 -9
43 -32 33 -79 129 -101 204 -9 32 -15 59 -13 60 2 1 17 15 35 31 l31 28 59
-28 c45 -22 71 -29 115 -28 l56 1 10 -41 c6 -23 13 -61 17 -86 6 -44 6 -44
-10 -22 -9 12 -26 22 -39 22 -40 0 -46 -17 -39 -107 5 -73 4 -83 -11 -83 -19
0 -19 -2 -4 -35 10 -23 16 -26 42 -21 65 13 110 66 122 144 5 32 2 47 -9 60
-11 12 -13 22 -7 32 14 22 12 71 -6 123 -15 45 -15 47 10 84 14 21 26 43 26
50 0 7 16 28 36 48 34 34 94 148 94 178 0 8 -9 22 -21 33 -17 16 -22 16 -29 4
-6 -8 -10 -23 -10 -32 0 -33 -38 -105 -70 -131 -38 -32 -82 -35 -127 -7 -51
31 -66 71 -71 188 l-4 102 -30 0 -31 0 5 -103 c4 -80 10 -114 27 -150 29 -60
79 -103 130 -112 37 -6 39 -8 29 -30 -25 -55 -115 -66 -189 -21 -24 15 -52 32
-62 39 -16 10 -23 6 -55 -31 -41 -47 -60 -52 -87 -22 -10 11 -29 20 -42 20
-23 0 -23 1 -23 108 l0 107 41 47 c74 87 257 225 284 215 15 -6 75 28 75 42 0
6 37 22 83 37 111 35 263 44 370 20 84 -19 101 -15 94 20 -3 17 6 33 34 60 43
42 45 50 24 78 -13 18 -17 16 -78 -37 l-63 -56 -12 82 c-6 45 -15 102 -20 126
l-10 44 92 -7 c90 -6 152 -18 191 -36 11 -6 40 -17 64 -25 25 -9 75 -36 112
-62 70 -47 99 -51 99 -14 0 20 5 22 72 36 10 2 20 0 22 -4 3 -4 30 -105 61
-225 30 -120 60 -227 66 -237 10 -20 44 -26 54 -9 3 5 -1 34 -9 65 -13 52 -13
55 3 50 38 -12 175 -35 208 -35 l35 0 -4 -92 -3 -93 25 0 c23 0 25 4 28 58 2
31 6 57 10 56 4 -1 39 -36 78 -78 l71 -77 17 -90 c25 -135 23 -204 -8 -319
-47 -177 -47 -177 -70 -170 -12 4 -36 9 -54 12 -31 5 -33 3 -30 -18 2 -20 16
-29 87 -53 l83 -29 -6 -46 c-3 -25 -12 -51 -19 -59 -7 -7 -72 -34 -144 -61
-71 -27 -140 -54 -153 -61 -21 -11 -25 -10 -43 14 -21 30 -66 56 -95 56 -10 0
-24 -11 -30 -24 -10 -22 -8 -24 29 -35 58 -18 76 -64 39 -101 -11 -11 -17 -26
-14 -34 7 -19 -17 -25 -111 -28 -68 -3 -70 -4 -71 -30 -1 -30 -23 -68 -62
-110 l-26 -28 -44 25 c-28 16 -74 28 -130 36 -48 6 -112 17 -142 25 -74 19
-119 18 -163 -5 -20 -10 -54 -22 -74 -26 -55 -10 -58 -14 -22 -41 40 -29 50
-29 119 -1 51 21 60 22 105 10 28 -7 95 -18 150 -25 76 -9 93 -14 70 -19 -30
-7 -29 -7 7 -8 21 0 76 -20 129 -46 130 -63 188 -59 219 15 8 21 18 29 29 26
9 -3 52 -8 96 -12 45 -4 116 -19 162 -35 46 -16 94 -29 108 -29 34 0 102 35
115 59 13 25 13 102 0 135 -8 22 -5 28 18 45 15 10 45 24 67 30 22 6 50 17 61
25 26 18 54 75 54 108 0 12 27 61 61 108 115 162 159 281 159 432 0 131 -18
161 -137 229 l-43 24 0 111 c0 82 -5 125 -19 165 -28 81 -60 145 -87 175 -23
24 -31 26 -77 22 -29 -3 -78 -17 -109 -32 -31 -14 -74 -26 -96 -26 l-40 0 2
138 c1 116 -2 145 -19 191 -35 92 -47 96 -249 95 l-173 0 -23 43 c-27 50 -46
58 -131 50 -53 -5 -59 -3 -59 14 0 11 -15 36 -34 57 l-34 37 -99 2 c-54 1
-133 -4 -176 -12z m266 -84 c9 -16 17 -31 17 -34 0 -3 -20 -15 -44 -26 l-44
-22 -73 21 c-41 11 -107 23 -147 27 -40 3 -75 9 -77 14 -12 18 139 46 260 48
90 1 91 1 108 -28z m215 -105 c11 -24 10 -25 -46 -36 -31 -6 -63 -13 -69 -15
-14 -5 -19 56 -6 68 3 4 30 7 58 7 45 0 53 -3 63 -24z m-675 -68 c10 -40 17
-92 17 -115 l0 -43 -86 0 c-95 0 -216 -24 -234 -46 -7 -7 -16 -11 -21 -9 -4 3
-26 -4 -49 -15 -22 -11 -40 -16 -40 -11 0 5 -9 7 -19 4 -14 -3 -23 3 -33 24
-8 17 -21 28 -33 28 -16 0 -21 -8 -23 -36 -4 -42 -53 -100 -164 -193 l-67 -55
16 52 c55 187 253 363 494 437 107 33 118 35 101 18 -27 -27 -9 -26 35 2 75
48 86 43 106 -42z m1057 -1 c54 -18 71 -78 67 -229 -2 -65 -6 -120 -9 -123 -7
-7 -163 19 -227 38 l-45 13 -38 144 c-20 79 -36 145 -34 147 5 5 148 20 201
21 28 1 66 -4 85 -11z m196 -459 c16 -32 16 -33 -2 -13 -11 11 -25 26 -33 33
-13 10 -13 12 2 12 9 0 24 -15 33 -32z m-2116 -137 c0 -19 -57 -131 -63 -125
-25 25 10 134 42 134 12 0 21 -4 21 -9z m35 -196 c4 -44 18 -114 31 -155 13
-41 21 -76 19 -78 -7 -7 -95 120 -102 145 -5 21 35 179 43 170 1 -1 5 -38 9
-82z m-104 -468 c9 -7 31 -47 48 -88 38 -92 76 -154 132 -214 23 -25 37 -45
32 -45 -16 0 -127 70 -162 103 -46 44 -109 142 -117 182 -12 65 22 96 67 62z"/>
<path d="M370 2526 c0 -2 8 -10 18 -17 15 -13 16 -12 3 4 -13 16 -21 21 -21
13z"/>
<path d="M2445 2510 c10 -11 20 -20 23 -20 3 0 -3 9 -13 20 -10 11 -20 20 -23
20 -3 0 3 -9 13 -20z"/>
<path d="M2515 2510 c10 -11 20 -20 23 -20 3 0 -3 9 -13 20 -10 11 -20 20 -23
20 -3 0 3 -9 13 -20z"/>
<path d="M288 2513 c7 -3 16 -2 19 1 4 3 -2 6 -13 5 -11 0 -14 -3 -6 -6z"/>
<path d="M346 2492 c-3 -5 1 -9 9 -9 8 0 12 4 9 9 -3 4 -7 8 -9 8 -2 0 -6 -4
-9 -8z"/>
<path d="M197 2479 c7 -7 15 -10 18 -7 3 3 -2 9 -12 12 -14 6 -15 5 -6 -5z"/>
<path d="M410 2476 c0 -2 8 -10 18 -17 15 -13 16 -12 3 4 -13 16 -21 21 -21
13z"/>
<path d="M491 2464 c0 -11 3 -14 6 -6 3 7 2 16 -1 19 -3 4 -6 -2 -5 -13z"/>
<path d="M2505 2460 c10 -11 20 -20 23 -20 3 0 -3 9 -13 20 -10 11 -20 20 -23
20 -3 0 3 -9 13 -20z"/>
<path d="M545 2459 c-4 -6 -5 -12 -2 -15 2 -3 7 2 10 11 7 17 1 20 -8 4z"/>
<path d="M380 2456 c0 -2 8 -10 18 -17 15 -13 16 -12 3 4 -13 16 -21 21 -21
13z"/>
<path d="M2596 2447 c3 -10 9 -15 12 -12 3 3 0 11 -7 18 -10 9 -11 8 -5 -6z"/>
<path d="M580 2435 c-6 -8 -10 -19 -8 -24 1 -6 8 1 15 14 13 28 11 31 -7 10z"/>
<path d="M521 2424 c0 -11 3 -14 6 -6 3 7 2 16 -1 19 -3 4 -6 -2 -5 -13z"/>
<path d="M311 2404 c0 -11 3 -14 6 -6 3 7 2 16 -1 19 -3 4 -6 -2 -5 -13z"/>
<path d="M438 2399 c6 -9 8 -20 4 -24 -4 -5 -2 -5 5 -2 6 4 14 1 16 -5 3 -8 6
-8 6 -2 1 6 -9 19 -21 30 -14 12 -18 13 -10 3z"/>
<path d="M280 2371 c0 -6 4 -13 10 -16 6 -3 7 1 4 9 -7 18 -14 21 -14 7z"/>
<path d="M480 2361 c0 -6 5 -13 12 -17 6 -4 8 -3 4 4 -3 5 0 13 6 15 8 3 6 6
-4 6 -10 1 -18 -3 -18 -8z"/>
<path d="M2735 2338 c-33 -13 -67 -18 -102 -16 l-51 3 -6 -35 c-8 -51 -7 -80
3 -80 6 0 9 12 8 28 -2 25 1 27 37 30 29 3 36 0 30 -10 -4 -7 12 4 37 25 45
36 68 45 83 30 4 -4 23 -6 43 -4 l36 3 -7 -60 -7 -60 36 -28 c48 -36 45 -66
-7 -75 -48 -7 -68 -25 -68 -59 0 -15 -8 -34 -18 -44 -18 -15 -20 -15 -34 1 -9
10 -21 28 -27 41 -17 31 -69 62 -107 62 -45 0 -61 23 -40 55 16 24 16 25 -4
25 -11 0 -23 7 -27 16 -4 12 -9 8 -19 -16 -32 -74 -11 -110 70 -125 37 -6 61
-25 113 -88 12 -14 35 -30 49 -33 23 -6 33 -1 61 29 19 21 33 47 33 62 0 21 5
25 29 25 46 0 81 35 81 80 0 31 -6 44 -34 67 -32 28 -33 33 -28 82 4 40 1 56
-13 71 -23 26 -82 25 -150 -2z"/>
<path d="M546 2333 c-6 -14 -5 -15 5 -6 7 7 10 15 7 18 -3 3 -9 -2 -12 -12z"/>
<path d="M2533 2255 c0 -27 2 -38 4 -22 2 15 2 37 0 50 -2 12 -4 0 -4 -28z"/>
<path d="M2719 2253 l-24 -28 25 21 c14 12 32 24 40 27 13 5 13 6 -1 6 -8 1
-26 -11 -40 -26z"/>
<path d="M1152 1642 c-8 -5 -12 -18 -10 -28 2 -14 16 -21 53 -26 27 -4 82 -19
122 -34 74 -27 103 -27 103 0 0 37 -232 112 -268 88z"/>
<path d="M1154 1250 c-43 -17 -83 -69 -90 -116 -9 -62 0 -154 20 -192 9 -17
16 -55 16 -84 0 -105 89 -235 194 -284 56 -26 96 -30 114 -12 16 16 -3 48 -29
48 -51 0 -146 69 -183 134 -47 82 -40 153 20 192 24 16 27 16 52 -3 15 -11 41
-45 57 -76 39 -72 82 -117 112 -117 35 0 40 28 10 53 -14 12 -43 51 -63 87
-66 116 -100 139 -170 120 -24 -7 -49 -19 -55 -26 -20 -24 -27 -16 -39 40 -21
103 16 180 91 192 33 6 39 10 39 30 0 21 -5 24 -37 23 -21 0 -47 -4 -59 -9z"/>
<path d="M1071 627 c-34 -17 -36 -32 -6 -45 21 -10 32 -9 55 3 37 19 38 28 5
43 -31 14 -25 14 -54 -1z"/>
</g>
</svg>
